<svg xmlns="http://www.w3.org/2000/svg" width="144.829" height="72.474" viewBox="0 0 144.829 72.474">
  <g id="Group_84" data-name="Group 84" transform="translate(-61.489 -302.508)">
    <path id="Path_18" data-name="Path 18" d="M214.106,471.909c-1.818-11.061,1.446-19.941,10.175-26.921a23.554,23.554,0,0,0,30.225.066c6.555,4.544,12.683,13.925,10.244,26.848A168.035,168.035,0,0,1,214.106,471.909Z" transform="translate(-105.537 -98.842)" fill="#2ebae2"/>
    <path id="Path_19" data-name="Path 19" d="M102.812,427.634c1.975,2.212,3.965,4.38,5.857,6.63a1.656,1.656,0,0,1,.058,1.557,31.331,31.331,0,0,0-5.837,19.279,6.252,6.252,0,0,1-.107.8,165.421,165.421,0,0,1-40.648-1.2,25.769,25.769,0,0,1,10.037-26.814C82.234,435.145,92.319,435.188,102.812,427.634Z" transform="translate(0 -86.803)" fill="#2ebae2"/>
    <path id="Path_20" data-name="Path 20" d="M385.409,427.647c10.43,7.533,20.514,7.531,30.6.256,7.009,4.931,12.449,14.189,10.165,26.763a165.463,165.463,0,0,1-40.662,1.263c-.246-2.668-.332-5.171-.735-7.622a28.731,28.731,0,0,0-5.143-12.147c-.569-.8-.665-1.383.015-2.124C381.573,431.942,383.459,429.816,385.409,427.647Z" transform="translate(-220.387 -86.812)" fill="#2ebae2"/>
    <path id="Path_21" data-name="Path 21" d="M86.745,320.574c-.1-10.484,9.021-18.333,18.418-18.059a18.117,18.117,0,1,1-18.418,18.059Z" transform="translate(-17.52)" fill="#2ebae2"/>
    <path id="Path_22" data-name="Path 22" d="M256.877,319.4a18.13,18.13,0,1,1-18.05,18.134A18.053,18.053,0,0,1,256.877,319.4Z" transform="translate(-123.024 -11.721)" fill="#2ebae2"/>
    <path id="Path_23" data-name="Path 23" d="M427.156,320.774a18.108,18.108,0,1,1-18.233-18.041A18.057,18.057,0,0,1,427.156,320.774Z" transform="translate(-228.547 -0.156)" fill="#2ebae2"/>
  </g>
</svg>
