<svg xmlns="http://www.w3.org/2000/svg" width="48" height="48" viewBox="0 0 48 48">
  <g id="Group_224" data-name="Group 224" transform="translate(-710 -770)">
    <g id="Group_213" data-name="Group 213">
      <rect id="Rectangle_121" data-name="Rectangle 121" width="48" height="48" rx="24" transform="translate(710 770)" fill="#4781fb" opacity="0.1"/>
      <g id="Group_84" data-name="Group 84" transform="translate(656.463 479.656)">
        <path id="Path_18" data-name="Path 18" d="M213.779,453.781a8.666,8.666,0,0,1,3.323-8.793,7.693,7.693,0,0,0,9.872.022,8.495,8.495,0,0,1,3.346,8.769A54.881,54.881,0,0,1,213.779,453.781Z" transform="translate(-136.913 -128.227)" fill="#4781fb"/>
        <path id="Path_19" data-name="Path 19" d="M74.986,427.634c.645.722,1.295,1.43,1.913,2.165a.541.541,0,0,1,.019.509,10.233,10.233,0,0,0-1.906,6.3,2.041,2.041,0,0,1-.035.26,54.028,54.028,0,0,1-13.276-.393,8.416,8.416,0,0,1,3.278-8.758C68.265,430.087,71.559,430.1,74.986,427.634Z" transform="translate(0 -112.609)" fill="#4781fb"/>
        <path id="Path_21" data-name="Path 21" d="M86.745,308.409a5.914,5.914,0,1,1,5.885,5.935A5.931,5.931,0,0,1,86.745,308.409Z" transform="translate(-22.729)" fill="#4781fb"/>
        <path id="Path_22" data-name="Path 22" d="M244.722,319.4a5.921,5.921,0,1,1-5.9,5.923A5.9,5.9,0,0,1,244.722,319.4Z" transform="translate(-159.598 -15.206)" fill="#4781fb"/>
      </g>
    </g>
  </g>
</svg>
