<svg xmlns="http://www.w3.org/2000/svg" width="48" height="48" viewBox="0 0 48 48">
  <g id="Group_211" data-name="Group 211" transform="translate(-200 -770)">
    <rect id="Rectangle_117" data-name="Rectangle 117" width="48" height="48" rx="24" transform="translate(200 770)" fill="#2ebae2" opacity="0.1"/>
    <path id="sport" d="M101.57,85.333a16.237,16.237,0,1,0,16.237,16.237A16.237,16.237,0,0,0,101.57,85.333ZM112.06,109.2h-3.767a1.624,1.624,0,0,0-1.624,1.169l-1.088,3.6a12.811,12.811,0,0,1-8.119,0l-1.088-3.6a1.624,1.624,0,0,0-1.624-1.169H90.984a12.99,12.99,0,0,1-2.4-7.631l3.1-2.176a1.624,1.624,0,0,0,.617-1.883l-1.234-3.54a12.99,12.99,0,0,1,6.495-4.757l3.02,2.289a1.624,1.624,0,0,0,1.981,0l3-2.289a12.99,12.99,0,0,1,6.495,4.757l-1.218,3.54a1.624,1.624,0,0,0,.617,1.883l3.1,2.176A12.99,12.99,0,0,1,112.06,109.2ZM106.6,99.037a1.429,1.429,0,0,1,.568,1.624l-1.624,4.693a1.624,1.624,0,0,1-1.624,1.055H99.054a1.624,1.624,0,0,1-1.624-1.055l-1.624-4.693a1.429,1.429,0,0,1,.568-1.624l4.043-2.841a1.77,1.77,0,0,1,1.981,0Z" transform="translate(122.43 692.43)" fill="#2ebae2"/>
  </g>
</svg>
