<svg xmlns="http://www.w3.org/2000/svg" width="48" height="48" viewBox="0 0 48 48">
  <g id="Group_212" data-name="Group 212" transform="translate(-455 -770)">
    <rect id="Rectangle_119" data-name="Rectangle 119" width="48" height="48" rx="24" transform="translate(455 770)" fill="#f36c33" opacity="0.1"/>
    <path id="music" d="M154.783,147.366V129.518a1.642,1.642,0,0,0-1.979-1.59l-14.6,3.245a1.623,1.623,0,0,0-1.266,1.59v13.532a5.663,5.663,0,1,0,3.245,5.16,7.074,7.074,0,0,0,0-.844v-16.55l11.358-2.515v11.5a5.663,5.663,0,1,0,3.245,5.143,7.411,7.411,0,0,0,0-.827Z" transform="translate(335.38 650.763)" fill="#f36c33"/>
  </g>
</svg>
