<svg xmlns="http://www.w3.org/2000/svg" width="48" height="48" viewBox="0 0 48 48">
  <g id="Group_214" data-name="Group 214" transform="translate(-965 -770)">
    <rect id="Rectangle_123" data-name="Rectangle 123" width="48" height="48" rx="24" transform="translate(965 770)" fill="#39c38f" opacity="0.1"/>
    <g id="Group_87" data-name="Group 87" transform="translate(689.199 -318.589)">
      <path id="Path_24" data-name="Path 24" d="M1022.692,99.721l-1.039-.357c-.741-.253-1.485-.5-2.222-.761a2.066,2.066,0,0,1-.554-.291.347.347,0,0,1,.005-.611,1.927,1.927,0,0,1,.521-.272q6.548-2.235,13.1-4.461c.455-.155.91-.308,1.361-.474a.981.981,0,0,1,.692,0q6.258,2.167,12.518,4.329c.622.215,1.246.424,1.865.646a2.112,2.112,0,0,1,.509.254.373.373,0,0,1,0,.677,1.974,1.974,0,0,1-.507.258q-4.29,1.486-8.583,2.963c-1.86.642-3.72,1.281-5.576,1.934a1.284,1.284,0,0,1-.9,0q-4.75-1.636-9.509-3.247a.325.325,0,0,0-.258.054,3.728,3.728,0,0,0-1.361,2.142,18.039,18.039,0,0,0-.273,1.87.324.324,0,0,0,.109.243,1.527,1.527,0,0,1,.07,2.366c-.16.144-.088.3-.083.456.028,1.085.1,2.171.082,3.255a4.918,4.918,0,0,1-.72,2.615,3.409,3.409,0,0,1-1.51,1.288.394.394,0,0,1-.259,0,6.786,6.786,0,0,1-2.109-1.224c.087-.111.17-.218.254-.323a12.182,12.182,0,0,0,2.233-4.013c.167-.545.263-1.112.394-1.669a.2.2,0,0,0-.108-.241,1.528,1.528,0,0,1,.126-2.653.267.267,0,0,0,.153-.262c.037-.571.054-1.145.132-1.71a4.612,4.612,0,0,1,1.323-2.637C1022.608,99.825,1022.639,99.783,1022.692,99.721Z" transform="translate(-734.063 1009.323)" fill="#39c38f"/>
      <path id="Path_25" data-name="Path 25" d="M1180.237,343.465l1.581.536,7.379,2.513a1.685,1.685,0,0,1,.241.087,1.576,1.576,0,0,0,1.343.011c2.86-1.007,5.731-1.986,8.6-2.975l1.241-.426v.836c0,1.994-.024,3.989.012,5.983a2.1,2.1,0,0,1-.913,1.817,8.4,8.4,0,0,1-2.833,1.308,21.624,21.624,0,0,1-4.7.764,26.993,26.993,0,0,1-6.08-.288,14.251,14.251,0,0,1-3.943-1.162,4.388,4.388,0,0,1-1.534-1.122,1.626,1.626,0,0,1-.389-1.07q.007-3.288,0-6.575Z" transform="translate(-889.828 768.451)" fill="#39c38f"/>
    </g>
  </g>
</svg>
