<svg xmlns="http://www.w3.org/2000/svg" width="92.318" height="92.318" viewBox="0 0 92.318 92.318">
  <path id="sport" d="M131.492,85.333a46.159,46.159,0,1,0,46.159,46.159A46.159,46.159,0,0,0,131.492,85.333Zm29.819,67.854H150.6a4.616,4.616,0,0,0-4.616,3.323l-3.093,10.247a36.419,36.419,0,0,1-23.079,0l-3.093-10.247a4.616,4.616,0,0,0-4.616-3.323H101.4a36.927,36.927,0,0,1-6.832-21.695l8.816-6.185a4.616,4.616,0,0,0,1.754-5.354l-3.508-10.063a36.927,36.927,0,0,1,18.464-13.525l8.586,6.508a4.616,4.616,0,0,0,5.631,0l8.539-6.508a36.927,36.927,0,0,1,18.464,13.525l-3.462,10.063a4.616,4.616,0,0,0,1.754,5.354l8.816,6.185a36.927,36.927,0,0,1-7.108,21.695Zm-15.509-28.9a4.062,4.062,0,0,1,1.616,4.616l-4.616,13.34a4.616,4.616,0,0,1-4.616,3H124.338a4.616,4.616,0,0,1-4.616-3l-4.616-13.34a4.062,4.062,0,0,1,1.616-4.616l11.494-8.078a5.031,5.031,0,0,1,5.631,0Z" transform="translate(-85.333 -85.333)" fill="#2ebae2"/>
</svg>
